<svg width="227" height="70" viewBox="0 0 227 70" fill="none" xmlns="http://www.w3.org/2000/svg"><path d="M92 28.789V17.253h7.51v1.231h-5.971v3.623h2.336a8.45 8.45 0 0 1 1.78.176 4.161 4.161 0 0 1 1.41.562 2.6 2.6 0 0 1 .926.985c.223.399.334.885.334 1.46 0 1.207-.396 2.092-1.187 2.655-.79.563-1.854.844-3.189.844H92zm1.539-1.16h2.15c1.051 0 1.83-.182 2.337-.546.52-.375.779-.961.779-1.758 0-.739-.266-1.272-.798-1.6-.519-.329-1.304-.493-2.354-.493h-2.114v4.396zm11.311-5.294l-.574 1.759h3.652l-.574-1.759a68.547 68.547 0 0 1-.63-1.916c-.199-.645-.396-1.302-.594-1.97h-.074a76.353 76.353 0 0 1-.575 1.97 68.552 68.552 0 0 1-.63 1.916zm-3.708 6.454l4.117-11.536H107l4.116 11.536h-1.65l-1.15-3.517h-4.43l-1.169 3.517h-1.576zm11.698 0V17.253h1.54v4.836h5.655v-4.836h1.557V28.79h-1.557v-5.434h-5.655v5.434h-1.54zm12.096 0V17.253h1.539v4.871h2.095l1.706-2.936c.26-.434.494-.792.705-1.073.21-.281.42-.498.63-.65.223-.165.445-.276.667-.335.223-.058.47-.088.742-.088.111 0 .223.012.334.035.123.012.235.036.334.07l-.26 1.372a1.442 1.442 0 0 0-.241-.052 1.316 1.316 0 0 0-.575.035 1.043 1.043 0 0 0-.352.21 3.213 3.213 0 0 0-.37.44 9.57 9.57 0 0 0-.483.757l-1.613 2.725 4.19 6.155h-1.687l-3.745-5.469h-2.077v5.469h-1.539zm10.755 0V17.253h7.01v1.231h-5.47v3.623h4.616v1.248h-4.617v4.185h5.655v1.249h-7.194zm12.299 0V18.484h-3.67v-1.23h8.9v1.23h-3.672V28.79h-1.557zm7.42 0V17.253h1.539v4.836h5.655v-4.836h1.557V28.79h-1.557v-5.434h-5.655v5.434h-1.54zm12.095 0V17.253h1.539v4.73h1.891a7.88 7.88 0 0 1 1.817.194c.556.117 1.032.31 1.428.58.395.258.698.592.908 1.003.223.41.334.902.334 1.477 0 .621-.105 1.155-.315 1.6-.21.446-.513.815-.909 1.108-.383.281-.853.492-1.409.633a7.343 7.343 0 0 1-1.835.211h-3.449zm1.539-1.196h1.724c1.026 0 1.805-.181 2.336-.545.532-.363.798-.955.798-1.776 0-.739-.266-1.272-.798-1.6-.531-.34-1.328-.51-2.391-.51h-1.67v4.431zm8.38 1.196V17.253h1.54V28.79h-1.54zm4.874 0V17.253h1.52v5.962c0 .61-.024 1.23-.074 1.864l-.11 1.81h.073l1.317-2.356 4.468-7.28h1.632V28.79h-1.52v-6.032c0-.61.018-1.213.055-1.81.05-.61.093-1.208.13-1.795h-.074l-1.317 2.357-4.468 7.28h-1.632zm4.487-12.468c-.519 0-.952-.064-1.298-.193a2.477 2.477 0 0 1-.853-.51 2.353 2.353 0 0 1-.482-.756 2.963 2.963 0 0 1-.167-.862h1.335c.013.41.13.768.353 1.073.222.293.593.44 1.112.44.26 0 .476-.042.65-.124a1.207 1.207 0 0 0 .705-.791c.06-.188.098-.387.11-.598h1.335a3.47 3.47 0 0 1-.186.862 2 2 0 0 1-.482.756c-.21.21-.488.38-.834.51-.346.129-.779.193-1.298.193zM201.663 29c-.889 0-1.687-.129-2.391-.387-.705-.27-1.366-.703-1.984-1.301l.871-1.003c.532.516 1.069.88 1.613 1.09.544.212 1.168.317 1.873.317.395 0 .766-.047 1.112-.14.347-.106.649-.252.909-.44.26-.2.463-.44.612-.721.161-.281.241-.604.241-.967 0-.739-.284-1.284-.853-1.636-.569-.351-1.378-.527-2.429-.527h-1.372v-1.126h1.001c1.076 0 1.848-.164 2.318-.492.47-.34.704-.838.704-1.495 0-.61-.228-1.066-.686-1.371-.445-.317-1.007-.475-1.687-.475-.568 0-1.094.1-1.576.299a4.222 4.222 0 0 0-1.279.774l-.835-.985c.433-.41.977-.739 1.632-.985a5.669 5.669 0 0 1 2.095-.387c.569 0 1.088.07 1.558.211.482.13.89.323 1.223.58.347.247.612.557.798.933.185.363.278.773.278 1.23 0 .61-.155 1.15-.464 1.618-.309.458-.76.786-1.353.985v.07c.704.13 1.285.44 1.743.932.469.481.704 1.12.704 1.917a3.05 3.05 0 0 1-.352 1.477 3.28 3.28 0 0 1-.927 1.108 4.307 4.307 0 0 1-1.391.668 6.16 6.16 0 0 1-1.706.229zm8.876-6.665l-.574 1.759h3.652l-.575-1.759a70.907 70.907 0 0 1-.63-1.916c-.198-.645-.395-1.302-.593-1.97h-.074a77.564 77.564 0 0 1-.575 1.97 67.605 67.605 0 0 1-.631 1.916zm-3.708 6.454l4.116-11.536h1.743l4.116 11.536h-1.65l-1.149-3.517h-4.432l-1.168 3.517h-1.576zm11.195.211c-.198 0-.377-.012-.538-.035a2.839 2.839 0 0 1-.5-.123l.315-1.354c.185.07.358.105.519.105.161 0 .309-.03.445-.088.148-.07.291-.21.426-.422.149-.223.285-.539.408-.95.136-.41.279-.955.427-1.635.247-1.207.482-2.397.704-3.57.223-1.172.452-2.397.686-3.675H227V28.79h-1.539V18.484h-3.337c-.198 1.067-.39 2.105-.575 3.113a100.866 100.866 0 0 1-.575 3.06c-.173.879-.358 1.6-.556 2.162-.186.563-.396 1.009-.631 1.337-.234.316-.494.533-.778.65a2.36 2.36 0 0 1-.983.194zM92 55.663l5.29-9.669-1.548-3.457c-.319-.656-.637-1.096-.956-1.321a1.857 1.857 0 0 0-1.098-.337c-.094 0-.215.01-.366.028-.13 0-.272.028-.422.084l-.703-3.738c.206-.094.44-.16.703-.197.282-.037.554-.056.816-.056 1.032 0 1.933.234 2.702.703.788.468 1.5 1.34 2.138 2.614l1.998 4.216h1.632v-7.196h3.94v7.196h1.631l1.97-4.216a8.444 8.444 0 0 1 1.013-1.603 4.664 4.664 0 0 1 1.126-1.011c.393-.263.816-.44 1.266-.534a6.028 6.028 0 0 1 2.25-.113c.263.038.498.103.704.197l-.675 3.738c-.15-.056-.3-.084-.45-.084a2.445 2.445 0 0 0-.338-.028c-.431 0-.806.112-1.125.337-.3.225-.61.665-.929 1.321l-1.576 3.485 5.318 9.64h-4.445l-3.855-7.785h-1.886v7.786h-3.939v-7.786h-1.885l-3.855 7.786H92z" fill="#2E2E2E"/><path d="M122.844 46.388l-.45 1.686h3.911l-.422-1.686a65.385 65.385 0 0 1-.76-2.924 188.15 188.15 0 0 0-.731-2.979h-.113c-.225.975-.46 1.977-.703 3.008a50.096 50.096 0 0 1-.732 2.895zm-6.64 9.275l5.74-18.326h4.98l5.74 18.326h-4.39l-1.125-4.357h-5.6l-1.125 4.357h-4.22zm18.465 0V37.337h4.136v7.055h6.331v-7.055h4.165v18.326h-4.165v-7.645h-6.33v7.645h-4.137zm23.265-9.275l-.45 1.686h3.911l-.422-1.686a65.385 65.385 0 0 1-.76-2.924 168.51 168.51 0 0 0-.731-2.979h-.113c-.225.975-.46 1.977-.703 3.008a50.096 50.096 0 0 1-.732 2.895zm-6.64 9.275l5.74-18.326h4.98l5.74 18.326h-4.389l-1.126-4.357h-5.599l-1.126 4.357h-4.22z" fill="#2E2E2E"/><path d="M167.649 55.663l5.29-9.669-1.548-3.457c-.319-.656-.638-1.096-.956-1.321a1.857 1.857 0 0 0-1.098-.337c-.094 0-.216.01-.366.028-.131 0-.272.028-.422.084l-.703-3.738c.206-.094.44-.16.703-.197.282-.037.554-.056.816-.056 1.032 0 1.933.234 2.702.703.787.468 1.5 1.34 2.138 2.614l1.998 4.216h1.632v-7.196h3.94v7.196h1.631l1.97-4.216c.319-.638.656-1.172 1.013-1.603a4.664 4.664 0 0 1 1.125-1.011c.394-.263.816-.44 1.267-.534a6.03 6.03 0 0 1 2.25-.113c.263.038.498.103.704.197l-.675 3.738c-.15-.056-.3-.084-.45-.084a2.444 2.444 0 0 0-.338-.028c-.432 0-.807.112-1.126.337-.3.225-.61.665-.928 1.321l-1.576 3.485 5.318 9.64h-4.446l-3.855-7.785h-1.885v7.786h-3.94v-7.786h-1.884l-3.855 7.786h-4.446zM201.37 56c-1.238 0-2.373-.215-3.405-.646a7.563 7.563 0 0 1-2.617-1.912c-.732-.824-1.304-1.827-1.716-3.007-.394-1.18-.591-2.52-.591-4.02 0-1.498.197-2.829.591-3.99.412-1.18.984-2.165 1.716-2.952a7.113 7.113 0 0 1 2.617-1.827c1.032-.43 2.167-.646 3.405-.646s2.363.215 3.376.646a7.054 7.054 0 0 1 2.645 1.827c.732.806 1.295 1.8 1.688 2.98.413 1.161.62 2.482.62 3.963 0 1.499-.207 2.838-.62 4.019-.393 1.18-.956 2.183-1.688 3.007a7.485 7.485 0 0 1-2.645 1.912c-1.013.43-2.138.646-3.376.646zm0-3.57c1.256 0 2.251-.533 2.982-1.602.732-1.086 1.098-2.557 1.098-4.412 0-1.837-.366-3.27-1.098-4.3-.731-1.031-1.726-1.546-2.982-1.546-1.257 0-2.251.515-2.983 1.545-.732 1.031-1.097 2.464-1.097 4.3 0 1.856.365 3.327 1.097 4.413.732 1.069 1.726 1.603 2.983 1.603zM212.509 56c-.488 0-.891-.019-1.21-.056a3.95 3.95 0 0 1-.929-.225l.732-3.71c.131.037.253.065.366.084.131.019.272.028.422.028.225 0 .441-.037.647-.112.206-.094.403-.29.591-.59.187-.319.375-.76.563-1.321.206-.581.412-1.368.619-2.361.375-1.705.722-3.42 1.041-5.144.319-1.724.638-3.476.956-5.256H227v18.326h-4.164v-14.84h-3.349c-.225 1.292-.45 2.538-.675 3.738-.225 1.199-.45 2.407-.676 3.625-.3 1.537-.628 2.811-.984 3.823-.338 1.012-.732 1.817-1.182 2.417-.45.58-.957.993-1.52 1.237-.562.225-1.21.337-1.941.337z" fill="#2E2E2E"/><path fill-rule="evenodd" clip-rule="evenodd" d="M5.411 9.06c.633-.616 2.55-1.85 3.534-2.432-.527-2.415-.95-3.896-1.371-5.183C7.099.053 6.572 0 6.572 0l-.123.07C3.424 2.08 1.244 5.94.489 7.369-.163 8.62-.075 10.065.241 11.44c.07.318.158.67.229 1.005.316 1.27.369 2.591.246 3.896-.035.317-.018.617.017.899.053.458.51.723.932.564l3.94-1.604a.678.678 0 0 0 .351-.934c-.369-.776-.984-2.098-1.336-3.297a2.89 2.89 0 0 1 .791-2.908z" transform="translate(18.272 42.66)" fill="url(#a)"/><path fill-rule="evenodd" clip-rule="evenodd" d="M1.715 4.336L2.172 0C3.965.212 5.74.264 7.447.106L7.64.088l-.967 6.646c-.14.97 0 1.974.422 2.873.21.459-.123 1.005-.633 1.005H.607a.61.61 0 0 1-.545-.881 17.462 17.462 0 0 0 1.653-5.395z" transform="translate(41.925 50.821)" fill="url(#b)"/><path d="M36.87 32.276c.123-.176.264-.334.405-.493 1.565-1.922-2.128-5.2-4.115-7.844a6.4 6.4 0 0 0-1.969-1.728c-1.899-1.093-2.127-.881-5.31-.987-2.602-2.803-3.85-2.962-7.753-2.962h-.581c-16.299 0-7.718-6.328-6.33-7.28.141-.106.282-.211.44-.3C15.21 8.092 20.8 6.012 15.156.141A.48.48 0 0 0 14.822 0a.353.353 0 0 0-.229.07c-.123.071-.175.194-.175.335a.56.56 0 0 1-.563.53c-.053 0-.123-.018-.194-.036l-.105-.035a.364.364 0 0 0-.457.158c-.088.16-.176.353-.088.423 8.44 7.369-11.991 3.614-9.16 17.946l-2.128-2.486c.633 6.134 8.14 6.998 4.66 6.998-.757 0-3.904-.423-6.383-4.213.791 4.196 2.954 5.694 6.892 5.694.774 0 3.71-.317 4.255-.317 1.002 0 1.6-.053 1.635.6.018.299-.105.58-.316.792-.862.846-1.67 1.622-1.582 2.768h.105c.72 0 1.477-.3 2.163-.3.246 0 .474.035.703.141 3.41 1.463 2.145 2.063 5.855 2.539-.967 1.163-.176 1.569.615 3.032-.844 3.084-1.547 2.855.915 4.124a.718.718 0 0 0 .263.071c.053 0 .088 0 .141-.018a13.596 13.596 0 0 0 3.71-1.516c.527-.317.914-.44 1.705-.493h.229a6 6 0 0 1 1.477.211c.44.124 1.002.159 1.635.159.932 0 2.04-.07 3.306-.088.492-1.393 2.232-3.473 3.164-4.813z" fill="url(#c)"/><path d="M39.297 33.933a4.615 4.615 0 0 1-.475-1.357c-.58-3.244-2.972-16.606-3.534-19.655-.035-.141.158-.23.246-.124.088.106.211.247.334.37a10.747 10.747 0 0 1 2.655 6.382l.229 3.367.369-1.305c1.125-3.86.158-8.038-2.743-10.982-3.306-3.35-11.253-9.06-21.802-10.541a9.262 9.262 0 0 0-2.093-.053c1.794 2.133 3.5 4.442 2.11 6.222l-.14.177c-.159.194-.3.37-.422.546-.194.265-.422.564-.65.881-.862 1.146-1.935 2.574-2.269 3.526l-.158.458h-.493c-.632 0-1.23.018-1.793.053-.545.018-1.055.036-1.512.036-.791 0-1.354-.053-1.811-.177-.492-.123-.914-.194-1.301-.194H3.85c-.686.036-.95.141-1.39.388-.773.458-1.6.846-2.461 1.146a4.02 4.02 0 0 0 1.213 1.992l.035.035c.915.793 1.934 2.027 2.427 3.772l2.971 12.71v.053a3.308 3.308 0 0 1-.527 2.256 3.85 3.85 0 0 0-.422.864.544.544 0 0 0 .51.723h5.31a.689.689 0 0 0 .668-.811c-.545-2.838-2.356-12.428-2.462-17.17l.299 1.323a5.869 5.869 0 0 0 4.36 4.371 42.67 42.67 0 0 0 9.794 1.093h1.864c4.589 0 6.189 1.552 6.575 3.843 0 0 .862 4.354.123 6.258-.21.511.176 1.075.739 1.075l5.222.018a.872.872 0 0 0 .773-1.287l-.175-.282z" transform="translate(23.262 25.913)" fill="url(#d)"/><path fill-rule="evenodd" clip-rule="evenodd" d="M0 6.62C20.905.732 41.442.785 61.626 6.55 43.728-1.155 23.876-3.182 0 6.62z" transform="translate(10.374 63.38)" fill="url(#e)"/><defs><linearGradient id="a" x2="1" gradientUnits="userSpaceOnUse" gradientTransform="matrix(0 17.8503 -8.94532 0 8.945 0)"><stop stop-color="#CDA267"/><stop offset="1" stop-color="#E3D389"/></linearGradient><linearGradient id="b" x2="1" gradientUnits="userSpaceOnUse" gradientTransform="matrix(0 10.6119 -7.63993 0 7.64 0)"><stop stop-color="#CDA267"/><stop offset="1" stop-color="#E3D389"/></linearGradient><linearGradient id="c" x2="1" gradientUnits="userSpaceOnUse" gradientTransform="matrix(21 8 -7.75635 20.3604 17.878 14.32)"><stop stop-color="#CDA267"/><stop offset="1" stop-color="#E3D389"/></linearGradient><linearGradient id="d" x2="1" gradientUnits="userSpaceOnUse" gradientTransform="matrix(0 35.5019 -39.5797 0 39.58 0)"><stop stop-color="#CDA267"/><stop offset="1" stop-color="#E3D389"/></linearGradient><linearGradient id="e" x2="1" gradientUnits="userSpaceOnUse" gradientTransform="matrix(0 6.61978 -61.6264 0 61.626 0)"><stop stop-color="#CDA267"/><stop offset="1" stop-color="#E3D389"/></linearGradient></defs></svg>