<svg xmlns="http://www.w3.org/2000/svg" viewBox="0 0 314.01 219.75"><defs><style>.cls-1{fill:#cab07f;}.cls-2,.cls-3{fill:#332525;}.cls-3{fill-rule:evenodd;}</style></defs><title>Ресурс 2</title><g id="Слой_2" data-name="Слой 2"><g id="Слой_1-2" data-name="Слой 1"><rect class="cls-1" width="314.01" height="219.75"/><path class="cls-2" d="M209.29,137.7c1,0,1.2.07,1.58,2.23h.85l-.42-3.13h-9.54l-.42,3.13h.87c.37-2.14.52-2.23,1.57-2.23h1.69v9.94c0,1.29-.09,1.45-1.6,1.45v.7h5.35v-.7c-1.53,0-1.62-.16-1.62-1.45V137.7Zm-19.87-.91v.71c1.24,0,1.36.1,1.36,1.41v8.72c0,1.29-.14,1.45-1.34,1.45v.7h3.64v-.7c-1.2,0-1.32-.16-1.32-1.45v-8.83h0L198,150h1.5v-11c0-1.29.16-1.43,1.29-1.43v-.71h-3.66v.71c1.22,0,1.39.14,1.39,1.43v8.15h0l-5.69-10.29ZM181,144.91l1.65-5.71h.05l1.85,5.71Zm4.51,3a2.46,2.46,0,0,1,.14.68c0,.33-.23.47-.91.47v.7h4.09v-.7c-.61,0-.82-.19-1.17-1.24l-3.87-11.32h-1.25L179,148.1c-.26.8-.49,1-1.08,1v.7h2.94v-.7c-.64,0-.89-.09-.89-.47a4,4,0,0,1,.17-.87l.54-2h4.13Zm-13.71-10.29a2.7,2.7,0,0,1,2,.63,2.6,2.6,0,0,1,.71,1.93c0,2.21-1.27,2.8-3,2.8h-1v-4.27c0-.92,0-1.1.45-1.1Zm-4.86-.85v.71c1.29,0,1.41.14,1.41,1.43v8.69c0,1.29-.12,1.46-1.41,1.46v.7h4.84v-.7c-1.22,0-1.31-.12-1.31-1.45v-3.76h1.22l3.17,5.9h2.91v-.7c-.71,0-1-.14-1.65-1.24l-2.42-4.27a3.4,3.4,0,0,0,3-3.38,2.94,2.94,0,0,0-1.25-2.56,5.79,5.79,0,0,0-3.62-.85Zm-8.61,2.14c0-1.32.1-1.43,1.24-1.43v-.71h-4.65v.71c1.17,0,1.27.14,1.27,1.43v6.46c0,2.33.42,4.65,4.49,4.65a4,4,0,0,0,3-1.1,4.69,4.69,0,0,0,1-3.41v-6.6c0-1.29.12-1.43,1.2-1.43v-.71h-3.41v.71c1.1,0,1.24.12,1.24,1.43v6.43c0,1.24-.12,3.66-2.73,3.66s-2.73-2.16-2.73-3.69Zm-11.55,6,1.65-5.71h.05l1.85,5.71Zm4.51,3a2.46,2.46,0,0,1,.14.68c0,.33-.23.47-.91.47v.7h4.09v-.7c-.61,0-.82-.19-1.17-1.24l-3.87-11.32h-1.25l-3.53,11.56c-.26.8-.49,1-1.08,1v.7h2.94v-.7c-.64,0-.89-.09-.89-.47a4,4,0,0,1,.17-.87l.54-2h4.13Zm-9.81-10.24c1,0,1.2.07,1.58,2.23h.85l-.42-3.13h-9.54l-.42,3.13h.87c.37-2.14.52-2.23,1.57-2.23h1.69v9.94c0,1.29-.09,1.45-1.6,1.45v.7h5.35v-.7c-1.53,0-1.62-.16-1.62-1.45V137.7Zm-16.6,8.93a19.52,19.52,0,0,1,.52,2.87,9.75,9.75,0,0,0,3.06.54c2.87,0,4.41-1.65,4.41-3.66a3.57,3.57,0,0,0-.71-2.21,11.55,11.55,0,0,0-2.7-2.12c-1.71-1.17-2.37-1.67-2.37-2.84a1.85,1.85,0,0,1,2-1.81c1.55,0,2,.59,2.32,2.47l.89-.14c-.17-1-.31-2-.38-2.72a7.51,7.51,0,0,0-2.77-.49c-3,0-4,1.81-4,3.19,0,2,1.17,2.73,3.12,4,1.71,1.15,2.58,1.74,2.58,3.19a2.18,2.18,0,0,1-2.28,2.25c-1.43,0-2.26-.57-2.8-2.75Zm-.77.16h-.91c-.45,2-.64,2.12-1.65,2.12h-2.61c-.35,0-.49-.07-.49-.78v-4.65h1.9c.78,0,.92.12.92,1.81h.85v-4.46h-.85c0,1.57-.16,1.78-.94,1.78h-1.88v-4.14c0-.68.05-.82.63-.82h2c1,0,1.17.1,1.62,2h.91L123,136.8h-8.15v.71c1.27,0,1.41.14,1.41,1.43v8.71c0,1.27-.14,1.45-1.41,1.45v.7h8.6Zm-15.66-9.14a2.7,2.7,0,0,1,2,.63,2.6,2.6,0,0,1,.71,1.93c0,2.21-1.27,2.8-3,2.8h-1v-4.27c0-.92,0-1.1.45-1.1Zm-4.86-.85v.71c1.29,0,1.41.14,1.41,1.43v8.69c0,1.29-.12,1.46-1.41,1.46v.7h4.84v-.7c-1.22,0-1.31-.12-1.31-1.45v-3.76h1.22l3.17,5.9h2.91v-.7c-.71,0-1-.14-1.65-1.24l-2.42-4.27a3.4,3.4,0,0,0,3-3.38,2.94,2.94,0,0,0-1.25-2.56,5.79,5.79,0,0,0-3.62-.85Z"/><rect class="cls-2" x="47.97" y="131.98" width="219.41" height="0.8"/><path class="cls-3" d="M147.92,157.19v.37a15.37,15.37,0,0,1,3.69,1.38,5.22,5.22,0,0,1,2.53,4.67,4.37,4.37,0,0,1-1.35,3.52,4.53,4.53,0,0,1-3,1.15,4.59,4.59,0,0,1-2.34-.56,3,3,0,0,1-1.54-2.83,3,3,0,0,1,.49-1.76,2.33,2.33,0,0,1,2-1,2.06,2.06,0,0,1,1.54.51,2.5,2.5,0,0,0-.68.45,1,1,0,0,0-.37.76q0,1.48,1.54,1.48t1.6-1.91a2.41,2.41,0,0,0-.89-2,4.22,4.22,0,0,0-5.7,1,4.48,4.48,0,0,0-.8,2.59A4.83,4.83,0,0,0,146,168.4a5,5,0,0,0,3.76,1.48,5.33,5.33,0,0,0,4.5-2.09,6.68,6.68,0,0,0,1.29-4.13,6.35,6.35,0,0,0-1.82-4.59,6.5,6.5,0,0,0-4.9-1.88h-.92M158.57,164v-.62a13.41,13.41,0,0,1,.15-1.72,6.8,6.8,0,0,1,.34-1.54,8.73,8.73,0,0,1-.77-1.08,8.2,8.2,0,0,1-.65-1.26,4,4,0,0,1-.62,1.27,8.05,8.05,0,0,1-.8,1,6.73,6.73,0,0,1,.37,1.54,14.36,14.36,0,0,1,.25,1.65V164a7,7,0,0,1-2.16,5.22,9.36,9.36,0,0,1-3.26,2.12q.8.43,1.35.8l1.11.87a7.67,7.67,0,0,0,1.6-1.8,14.57,14.57,0,0,0,1.11-2l.25.93a6.21,6.21,0,0,1-1.42,3.93l1.11.74a6.22,6.22,0,0,1,1.11.93,4.3,4.3,0,0,1,.86-.74l1.35-.92a7.3,7.3,0,0,1-1.29-3.88v-.92a21.44,21.44,0,0,0,1.17,2,7.37,7.37,0,0,0,1.79,1.79,7.07,7.07,0,0,1,1.08-.86,6.92,6.92,0,0,1,1.26-.68,7.6,7.6,0,0,1-3.14-2.16A7.68,7.68,0,0,1,158.57,164Zm8.81-6.34v-.37a1.47,1.47,0,0,0-.46-.09l-.46,0a6.46,6.46,0,0,0-4.87,1.91,6.32,6.32,0,0,0-1.85,4.56,6.68,6.68,0,0,0,1.29,4.13,5.23,5.23,0,0,0,4.5,2.09,5.08,5.08,0,0,0,3.76-1.42,4.77,4.77,0,0,0,1.42-3.51,4.1,4.1,0,0,0-4.13-4.25,3.31,3.31,0,0,0-2.71,1,2.37,2.37,0,0,0-.55,1.54q0,2,1.72,2a1.25,1.25,0,0,0,1.42-1.42,1,1,0,0,0-.34-.71,2.45,2.45,0,0,0-.59-.46,1.12,1.12,0,0,1,.59-.46,2.3,2.3,0,0,1,.83-.15,2.51,2.51,0,0,1,1.69.68,2.56,2.56,0,0,1,.77,2,3,3,0,0,1-1.48,2.83,4.65,4.65,0,0,1-2.4.62,4.17,4.17,0,0,1-2.77-1,4.46,4.46,0,0,1-1.48-3.63,5.07,5.07,0,0,1,2.4-4.56A13,13,0,0,1,167.38,157.69Z"/><path class="cls-2" d="M236.85,143.06,223,136l15.17,3.57a1.89,1.89,0,0,1-.87,3.68,2,2,0,0,1-.43-.16M167,27.58l-1,4.77A4.79,4.79,0,0,0,163.51,35l-.26-7.78a1.89,1.89,0,0,1,3.78-.13A2,2,0,0,1,167,27.58Zm7.34,1.13-2.91,9.58h0c-.29-.57-.69-1.49-1.2-2.44l.42-7.77a1.89,1.89,0,0,1,3.78.2A2,2,0,0,1,174.32,28.71Zm7.21,1.77-5.82,14.46,2.19-15.43a1.89,1.89,0,1,1,3.74.53A2,2,0,0,1,181.53,30.47Zm7,2.39-7.06,13.9L185,31.58a1.89,1.89,0,1,1,3.68.86A2,2,0,0,1,188.56,32.86Zm6.8,3-8.24,13.23L192,34.27a1.89,1.89,0,0,1,3.59,1.17A2,2,0,0,1,195.36,35.85Zm6.51,3.57-9.36,12.46,6.11-14.34A1.89,1.89,0,0,1,202.1,39,2,2,0,0,1,201.87,39.43ZM208,43.55l-10.41,11.6L205,41.4a1.89,1.89,0,1,1,3.34,1.78A1.92,1.92,0,0,1,208,43.55Zm5.79,4.65L202.45,58.85,211,45.79a1.89,1.89,0,1,1,3.17,2.06A2,2,0,0,1,213.83,48.2Zm5.36,5.14L206.93,63l9.61-12.27a1.89,1.89,0,1,1,3,2.33A2,2,0,0,1,219.19,53.34Zm4.89,5.58L211,67.43,221.67,56a1.89,1.89,0,1,1,2.76,2.58A2,2,0,0,1,224.09,58.92Zm4.39,6-13.75,7.34,11.6-10.41a1.89,1.89,0,1,1,2.53,2.81A2,2,0,0,1,228.48,64.91Zm3.85,6.35L218,77.37,230.45,68a1.89,1.89,0,0,1,2.27,3A2,2,0,0,1,232.33,71.26ZM84.95,68l12.46,9.36L83.07,71.26a1.89,1.89,0,0,1,1.48-3.48A2,2,0,0,1,84.95,68Zm4.13-6.17,11.6,10.41L86.92,64.91a1.89,1.89,0,1,1,1.78-3.34A1.93,1.93,0,0,1,89.07,61.84ZM93.72,56l10.65,11.38L91.31,58.92A1.89,1.89,0,1,1,93.72,56Zm5.14-5.36L108.47,63,96.2,53.34a1.89,1.89,0,1,1,2.33-3A1.94,1.94,0,0,1,98.86,50.68Zm5.58-4.89,8.51,13.06L101.57,48.2a1.89,1.89,0,1,1,2.58-2.76A2,2,0,0,1,104.44,45.79Zm6-4.39,7.34,13.75-10.41-11.6A1.89,1.89,0,0,1,110.17,41,2,2,0,0,1,110.43,41.4Zm6.35-3.85,6.11,14.34-9.36-12.46a1.89,1.89,0,1,1,3-2.27A2,2,0,0,1,116.78,37.55Zm6.66-3.28,4.84,14.81L120,35.85a1.89,1.89,0,0,1,3.21-2A2,2,0,0,1,123.44,34.27Zm20.79,4.82,0-.12.09,0Zm.54-11,.12,2.17a4.55,4.55,0,0,0-2.46,1.71,2.28,2.28,0,0,1-.28.3l-1.07-3.53a1.89,1.89,0,0,1,3.62-1.1A2,2,0,0,1,144.77,28.06Zm7.38-.81,0,.84a1.5,1.5,0,0,0-1.39.4,1.36,1.36,0,0,0-.22.24,1.28,1.28,0,0,0-.29.38c-.26.49-.62,1.15-1.25,1.14l-.56-2.67a1.89,1.89,0,1,1,3.7-.78A2,2,0,0,1,152.15,27.25Zm-21.79,4.33,3.53,15.18-7.05-13.9a1.89,1.89,0,1,1,3.37-1.71A2,2,0,0,1,130.36,31.58Zm7.13-2.08.77,5.41h0a4.4,4.4,0,0,0-.64,1.49,2,2,0,0,0,1.19,2.37l.87,6.15-5.82-14.46a1.89,1.89,0,1,1,3.51-1.41A2,2,0,0,1,137.49,29.5Zm96.5,120-13.23-8.24,14.82,4.83a1.89,1.89,0,1,1-1.17,3.59A2,2,0,0,1,234,149.48Zm-156.83-10L92.35,136l-13.9,7a1.89,1.89,0,0,1-1.71-3.37A2,2,0,0,1,77.16,139.48ZM79.63,146l14.84-4.75L81.2,149.4a1.89,1.89,0,0,1-2-3.22A2,2,0,0,1,79.63,146Zm150.82,10.36L218,147l14.34,6.11a1.89,1.89,0,0,1-1.48,3.48A2,2,0,0,1,230.45,156.35Zm-4.13,6.17-11.6-10.41,13.75,7.34a1.89,1.89,0,1,1-1.78,3.34A2,2,0,0,1,226.32,162.52Zm-4.65,5.79L211,156.93l13.06,8.51A1.89,1.89,0,1,1,222,168.6,2,2,0,0,1,221.67,168.31Zm-5.13,5.36-9.61-12.27L219.19,171a1.89,1.89,0,0,1-2.33,3A1.92,1.92,0,0,1,216.54,173.67ZM211,178.57l-8.51-13.06,11.38,10.64a1.89,1.89,0,1,1-2.58,2.76A1.93,1.93,0,0,1,211,178.57ZM205,183l-7.34-13.75L208,180.8a1.89,1.89,0,1,1-2.81,2.53A2,2,0,0,1,205,183Zm-6.35,3.85-6.11-14.34,9.36,12.46a1.89,1.89,0,0,1-3,2.27A2,2,0,0,1,198.62,186.81Zm-35.37,10.3.52-15.58L167,196.78a1.89,1.89,0,1,1-3.7.78A2,2,0,0,1,163.24,197.11Zm-7.42.16,1.88-15.47,1.88,15.47a1.89,1.89,0,0,1-3.75.46A2,2,0,0,1,155.82,197.27Zm-7.41-.49,3.22-15.25.52,15.58a1.89,1.89,0,0,1-3.78.13A2,2,0,0,1,148.41,196.78Zm-7.34-1.13,4.54-14.91-.84,15.56a1.89,1.89,0,1,1-3.78-.2A2,2,0,0,1,141.08,195.65Zm-7.21-1.77,5.82-14.46-2.19,15.43a1.89,1.89,0,1,1-3.74-.53A1.92,1.92,0,0,1,133.86,193.88Zm-7-2.39,7.05-13.9-3.53,15.18a1.89,1.89,0,1,1-3.68-.86A2,2,0,0,1,126.83,191.49Zm-25.27-15.34,11.38-10.64-8.51,13.06a1.89,1.89,0,1,1-3.17-2.06A1.94,1.94,0,0,1,101.57,176.15ZM96.2,171l12.27-9.61-9.61,12.27a1.89,1.89,0,1,1-3-2.33A2,2,0,0,1,96.2,171Zm-4.89-5.58,13.06-8.51L93.72,168.31A1.89,1.89,0,0,1,91,165.73,2,2,0,0,1,91.31,165.43Zm-4.39-6,13.75-7.34-11.6,10.41a1.89,1.89,0,0,1-2.53-2.81A2,2,0,0,1,86.92,159.45Zm-3.85-6.35L97.41,147l-12.46,9.36a1.89,1.89,0,0,1-2.27-3A2,2,0,0,1,83.07,153.1Zm87.56,43.2-.84-15.56,4.53,14.91a1.89,1.89,0,1,1-3.62,1.1A1.91,1.91,0,0,1,170.63,196.3Zm-63.27-15.5,10.41-11.6L110.43,183a1.89,1.89,0,1,1-3.34-1.78A1.93,1.93,0,0,1,107.36,180.8ZM120,188.5l8.24-13.23-4.84,14.81a1.89,1.89,0,0,1-3.59-1.17A2,2,0,0,1,120,188.5Zm-6.51-3.57,9.36-12.46-6.11,14.34a1.89,1.89,0,0,1-3.48-1.48A2,2,0,0,1,113.53,184.93ZM192,190.09l-4.84-14.81,8.24,13.23a1.89,1.89,0,0,1-3.21,2A2,2,0,0,1,192,190.09ZM185,192.78l-3.53-15.18,7.06,13.9a1.89,1.89,0,0,1-3.37,1.71A2,2,0,0,1,185,192.78Zm-7.13,2.08-2.19-15.43,5.82,14.46a1.89,1.89,0,0,1-3.51,1.41A2,2,0,0,1,177.91,194.85ZM159.58,27.09l-.64,5.26a2.2,2.2,0,0,0-1.33-.28,2.65,2.65,0,0,0-1.14.38l-.65-5.35a1.89,1.89,0,0,1,3.75-.46A2.05,2.05,0,0,1,159.58,27.09Z"/><path class="cls-2" d="M245.46,111.31a6,6,0,0,0,1.15,3.65,2.84,2.84,0,0,0,2.09,1.22q1.62,0,1.56-2.12a3.1,3.1,0,0,0-1-2.25,4,4,0,0,1,2.34,1.72,6.6,6.6,0,0,1,1,3.34,8.11,8.11,0,0,1-1.84,5.93q-2,2.37-6.4,2.37a4.79,4.79,0,0,1-1.78-.47,7.76,7.76,0,0,1-2.15-1.44,9,9,0,0,1-1.87-2.53,10,10,0,0,1-1-3.81,11.21,11.21,0,0,1,.59-4.56,28.6,28.6,0,0,1,2-4.59,48,48,0,0,1,2.78-4.46q1.53-2.18,2.84-4.15A30.58,30.58,0,0,0,248,95.52a5.88,5.88,0,0,0,.69-3.06,6.14,6.14,0,0,0-.5-2,4,4,0,0,0-.84-1.22,2.5,2.5,0,0,0-1-.59,3.3,3.3,0,0,0-.9-.16q-.62,0-1.22,1a3.33,3.33,0,0,0-.47,2.09,4.48,4.48,0,0,0,.87,2.31,3.59,3.59,0,0,1-1.84-1.75,9.88,9.88,0,0,1-1.09-3.37,6.86,6.86,0,0,1,.5-3.28,6.52,6.52,0,0,1,1.72-2.34,6,6,0,0,1,2.43-1.28,5.21,5.21,0,0,1,2.59,0,6.3,6.3,0,0,1,3.87,2.37q-.44-1.44-.87-2.84t-.94-2.84l3.53-.22q1.65-.09,3.15-.09,1.69,0,3.34.09t3.28.22a86.81,86.81,0,0,0-1.44,21.66,115.06,115.06,0,0,0,1.53,13.45,56.87,56.87,0,0,0,3,11q-1.56.12-3.31.22t-3.74.09q-1.87,0-3.59-.06t-3.34-.25a79,79,0,0,0,1.84-11.76,96.67,96.67,0,0,0,.16-12.33q-.19-2.5-.47-4.9t-.72-4.71q-.06.5-.12.94a9.34,9.34,0,0,1-.19.94,12.67,12.67,0,0,1-1.65,3.59q-1.22,1.9-2.56,4.15a51.13,51.13,0,0,0-2.56,4.9,20.69,20.69,0,0,0-1.65,5.9M226.93,98.89l-.44.09a2.7,2.7,0,0,1-.44,0,3.28,3.28,0,0,1-2.46-1,3.53,3.53,0,0,1-1-2.56,4.6,4.6,0,0,1,1.28-3.4,4.44,4.44,0,0,1,3.28-1.28A4.12,4.12,0,0,1,230,92a10.43,10.43,0,0,1,2.34,3.43,23.36,23.36,0,0,1,1.62,5.43,39.38,39.38,0,0,1,.59,7.18q0,8.8-2.59,13.26t-7.27,4.46a6.52,6.52,0,0,1-3.71-1.15,9.67,9.67,0,0,1-3-3.37,19.94,19.94,0,0,1-2-5.37,32,32,0,0,1-.72-7.08q0-9.55,3.31-14.67a10.66,10.66,0,0,1,9.17-5.24q-7.49,1.31-7.49,12.92a16.26,16.26,0,0,0,1.37,7.46q1.37,2.59,3.31,2.59t2.87-2.37a17.42,17.42,0,0,0,1.06-6.86q0-7.36-2.25-7.36a1.3,1.3,0,0,0-1,.47,1.89,1.89,0,0,0-.41,1.28A1.86,1.86,0,0,0,226.93,98.89ZM198.3,125.17a36.62,36.62,0,0,1-5.18.37,43.92,43.92,0,0,1-5.68-.37,63.8,63.8,0,0,0,2.28-8.8,45.28,45.28,0,0,0,.78-8.05v-.62a3.2,3.2,0,0,0-.06-.62l-1.75.06a34.26,34.26,0,0,1-.56,6.86,26,26,0,0,1-1.81,6,14.21,14.21,0,0,1-2.81,4.24,4.89,4.89,0,0,1-3.49,1.62q-2.62,0-4.24-3.46t-1.62-10.08a17.28,17.28,0,0,1,.62-4.87q1.19,6.74,6.3,6.74a4.68,4.68,0,0,0,4.15-2.47,12,12,0,0,0,1.53-6.4,11.2,11.2,0,0,0-.66-4.24,2.35,2.35,0,0,0-2.34-1.56q-2.75,0-2.75,2.93,0,2.37,2.62,3l.62-.19A4.87,4.87,0,0,1,180,108a5.27,5.27,0,0,1-4.49-2.34,10.88,10.88,0,0,1-1.68-6.46q0-4.49,1.72-6.93A5.29,5.29,0,0,1,180,89.84a5.23,5.23,0,0,1,4,1.68,12.1,12.1,0,0,1,2.53,4.31,34.64,34.64,0,0,1,1.19,4q.5,2.12.81,4.31h1.68a25.59,25.59,0,0,0-1.87-7.05,24.82,24.82,0,0,1,9.8-7.55q-.75,3.68-1.19,7.3t-.62,7.24l1.44-.06a33.69,33.69,0,0,1,.9-4.31q.59-2.12,1.28-4a11.4,11.4,0,0,1,2.62-4.31,5.53,5.53,0,0,1,4.06-1.69,5.29,5.29,0,0,1,4.52,2.43q1.72,2.43,1.72,6.93a10.88,10.88,0,0,1-1.69,6.46,5.27,5.27,0,0,1-4.49,2.34,4.87,4.87,0,0,1-4.31-2.75l.62.19q2.62-.62,2.62-3,0-2.93-2.75-2.93a3.2,3.2,0,0,0-2.75,1.56A7.45,7.45,0,0,0,199,105.2a11.4,11.4,0,0,0,.53,3.56,9.87,9.87,0,0,0,1.4,2.81A6.4,6.4,0,0,0,203,113.4a5.09,5.09,0,0,0,2.5.66q5.06,0,6.3-6.74a17.29,17.29,0,0,1,.62,4.87q0,6.62-1.62,10.08t-4.24,3.46A5.09,5.09,0,0,1,203,124.1a14.33,14.33,0,0,1-2.93-4.27,26.59,26.59,0,0,1-1.93-6,31.48,31.48,0,0,1-.62-6.87l-1.31.06v1.25a79.1,79.1,0,0,0,.53,9.61A38.17,38.17,0,0,0,198.3,125.17ZM162.11,102.7a7.52,7.52,0,0,1-1.47,3.4,10.3,10.3,0,0,1-2.59,2,6.93,6.93,0,0,1-1,.53,7.42,7.42,0,0,0-1,.5,2.38,2.38,0,0,0-.75.69,1.89,1.89,0,0,0-.28,1.09,2.1,2.1,0,0,0,2.37,2.37q4.74,0,4.74-10Zm8,6a13.81,13.81,0,0,1,1,3.46,24.23,24.23,0,0,1,.28,3.78,14,14,0,0,1-1.56,7.24,4.64,4.64,0,0,1-4.06,2.56,3.79,3.79,0,0,1-3.31-1.93,12.21,12.21,0,0,1-1.5-5.74q-1.5,7.68-6.3,7.68a5.49,5.49,0,0,1-4.56-2.59,11.64,11.64,0,0,1-1.87-7,15.52,15.52,0,0,1,.41-3.74,7.6,7.6,0,0,1,1.31-2.81,8.26,8.26,0,0,1,2.28-2,15,15,0,0,1,3.37-1.47,17.91,17.91,0,0,0,2.71-1.09,5.78,5.78,0,0,0,1.9-1.53,6,6,0,0,0,1.09-2.28,13.42,13.42,0,0,0,.34-3.28,8.88,8.88,0,0,0-1.19-5,3.51,3.51,0,0,0-3-1.78,3.07,3.07,0,0,0-2.37,1.12,4.25,4.25,0,0,0-1,2.93,2.49,2.49,0,0,0,.44,1.56,1.36,1.36,0,0,0,1.12.56,1.1,1.1,0,0,0,.94-.56,2.93,2.93,0,0,0,.37-1.62,2.83,2.83,0,0,0-.56-1.75,4,4,0,0,1,2.37,1.81,5.92,5.92,0,0,1,.94,3.31,6.35,6.35,0,0,1-1.25,4.18,4,4,0,0,1-3.25,1.5,4.31,4.31,0,0,1-3.43-1.62,6.35,6.35,0,0,1-1.37-4.24A8.77,8.77,0,0,1,151.1,95a8.5,8.5,0,0,1,1.84-2.75,8.6,8.6,0,0,1,2.72-1.84,8.38,8.38,0,0,1,3.34-.66A8.93,8.93,0,0,1,166.2,93q2.71,3.25,2.71,8.86a26.24,26.24,0,0,1-.31,4.06,25.44,25.44,0,0,0-.31,3.93q0,1.62,1,1.62t.87-1.87v-.41A1.93,1.93,0,0,0,170.1,108.69Zm-61.08-6a7.52,7.52,0,0,1-1.47,3.4,10.29,10.29,0,0,1-2.59,2,6.92,6.92,0,0,1-1,.53,7.43,7.43,0,0,0-1,.5,2.39,2.39,0,0,0-.75.69,1.89,1.89,0,0,0-.28,1.09,2.1,2.1,0,0,0,2.37,2.37q4.74,0,4.74-10Zm8,6a13.81,13.81,0,0,1,1,3.46,24.23,24.23,0,0,1,.28,3.78,14,14,0,0,1-1.56,7.24,4.64,4.64,0,0,1-4.06,2.56,3.79,3.79,0,0,1-3.31-1.93,12.21,12.21,0,0,1-1.5-5.74q-1.5,7.68-6.3,7.68A5.49,5.49,0,0,1,97,123.14a11.64,11.64,0,0,1-1.87-7,15.51,15.51,0,0,1,.41-3.74,7.6,7.6,0,0,1,1.31-2.81,8.25,8.25,0,0,1,2.28-2,15,15,0,0,1,3.37-1.47,17.92,17.92,0,0,0,2.71-1.09,5.78,5.78,0,0,0,1.9-1.53,6,6,0,0,0,1.09-2.28,13.42,13.42,0,0,0,.34-3.28,8.88,8.88,0,0,0-1.19-5,3.51,3.51,0,0,0-3-1.78A3.07,3.07,0,0,0,102,92.34a4.25,4.25,0,0,0-1,2.93,2.49,2.49,0,0,0,.44,1.56,1.36,1.36,0,0,0,1.12.56,1.1,1.1,0,0,0,.94-.56,2.93,2.93,0,0,0,.37-1.62,2.83,2.83,0,0,0-.56-1.75,4,4,0,0,1,2.37,1.81,5.92,5.92,0,0,1,.94,3.31,6.35,6.35,0,0,1-1.25,4.18,4,4,0,0,1-3.25,1.5,4.31,4.31,0,0,1-3.43-1.62,6.35,6.35,0,0,1-1.37-4.24A8.77,8.77,0,0,1,98,95a8.5,8.5,0,0,1,1.84-2.75,8.6,8.6,0,0,1,2.71-1.84,8.38,8.38,0,0,1,3.34-.66A8.93,8.93,0,0,1,113.11,93q2.71,3.25,2.71,8.86a26.23,26.23,0,0,1-.31,4.06,25.45,25.45,0,0,0-.31,3.93q0,1.62,1,1.62t.87-1.87v-.41A1.94,1.94,0,0,0,117,108.69Zm27.72,12.69c.86,1.4.68,2.47-.91,3.6-3.31,2.57,4.18,6.78,5.45.67.27-2.74-.47-4.22-2.91-6.08a3.48,3.48,0,0,0-.95-.48,25.52,25.52,0,0,0,.49-5.29,35.1,35.1,0,0,0-.19-3.62q-.37,2.37-1.68,2.37a1.35,1.35,0,0,1-1.15-.81,4.67,4.67,0,0,1-.47-2.31,21.48,21.48,0,0,1,.31-3.59q.31-1.84.72-3.65t.72-3.62a21.29,21.29,0,0,0,.31-3.62,11.66,11.66,0,0,0-.25-2.47,8.28,8.28,0,0,0-.87-2.28,3.8,3.8,0,0,0-1.15-.31,12.26,12.26,0,0,0-1.28-.06,11.69,11.69,0,0,0-6.37,2,5.15,5.15,0,0,1,.75,1.44,12.79,12.79,0,0,1,.53,2.34,30.71,30.71,0,0,1,.28,3.53q.06,2.06,0,4.93l-5.93.06a76,76,0,0,0-.06-8.21,12.3,12.3,0,0,0-1.37-5.52,3.85,3.85,0,0,0-1-.31,8.15,8.15,0,0,0-1.12-.06,9.25,9.25,0,0,0-3.06.5,14.39,14.39,0,0,0-3,1.5,15.07,15.07,0,0,1,1.12,4.21q.44,2.84.62,6.3t.19,7.15q0,3.68-.19,6.74a44.63,44.63,0,0,1-.56,5.12q-.37,2.06-.81,2.25a11.68,11.68,0,0,0,6.37,2,5.12,5.12,0,0,0,1-.06,5.05,5.05,0,0,0,.84-.31q.25-1.62.44-3.28t.31-3.78q.12-2.12.16-4.84t0-6.4h6q-.06,1.06-.09,2.18t-.09,2.43a24.2,24.2,0,0,0-.31,2.84q-.06,1.34-.06,2.53a13.78,13.78,0,0,0,1.19,6.46,3.53,3.53,0,0,0,3.12,2.15q2.62,0,4.37-3.12A10.3,10.3,0,0,0,144.73,121.38Zm-74.64,3.47q-3.81,0-7.55-.37a16.58,16.58,0,0,0,2.9-6.49,39.28,39.28,0,0,0,.72-7.86,20.62,20.62,0,0,0-1.5-8.74q-1.5-3.12-3.37-3.12-2.12,0-2.12,3.12a13.44,13.44,0,0,0,.47,3.49q.47,1.75,1,3.49t1,3.53a14.28,14.28,0,0,1,.47,3.65q0,4.68-1.84,7.27a5.67,5.67,0,0,1-4.84,2.59,6.29,6.29,0,0,1-5.55-3.06q-2-3.06-2-8.74a26.38,26.38,0,0,1,1.44-8.36v.62q0,3.25,1.75,3.25t1.81-3.62q0-1.12-.06-2.12t-.06-1.87q0-8.92,5.37-8.92,3.25,0,5.68,3.62a16,16,0,0,0-2.62-7A5.22,5.22,0,0,0,57,86.85,3.61,3.61,0,0,0,54.3,88,4.27,4.27,0,0,0,53.24,91a4.75,4.75,0,0,0,.25,1.62A11.4,11.4,0,0,1,50.87,89a10.57,10.57,0,0,1-.81-4.24,7.78,7.78,0,0,1,1.65-5.27A5.4,5.4,0,0,1,56,77.61q3.43,0,6.18,4.28t4.18,12.82v-.87a43.56,43.56,0,0,0-.72-8,41.86,41.86,0,0,0-2.09-7.4A61.9,61.9,0,0,1,70,78a61.9,61.9,0,0,1,6.43.37,41.91,41.91,0,0,0-2.09,7.4,43.59,43.59,0,0,0-.72,8v.87Q75,86.16,77.77,81.89t6.18-4.28a5.4,5.4,0,0,1,4.27,1.9,7.78,7.78,0,0,1,1.65,5.27A10.58,10.58,0,0,1,89.07,89a11.4,11.4,0,0,1-2.62,3.62A4.75,4.75,0,0,0,86.69,91,4.27,4.27,0,0,0,85.63,88a3.61,3.61,0,0,0-2.75-1.12,5.23,5.23,0,0,0-4.18,2.34,16,16,0,0,0-2.62,7q2.43-3.62,5.68-3.62,5.37,0,5.37,8.92,0,.87-.06,1.87T87,105.51q0,3.62,1.81,3.62t1.75-3.25v-.62A26.38,26.38,0,0,1,92,113.62q0,5.68-2,8.74a6.29,6.29,0,0,1-5.55,3.06,5.67,5.67,0,0,1-4.84-2.59q-1.84-2.59-1.84-7.27a14.28,14.28,0,0,1,.47-3.65q.47-1.78,1-3.53t1-3.49a13.46,13.46,0,0,0,.47-3.49q0-3.12-2.12-3.12-1.87,0-3.37,3.12a20.63,20.63,0,0,0-1.5,8.74,39.26,39.26,0,0,0,.72,7.86,16.58,16.58,0,0,0,2.9,6.49q-3.74.37-7.55.37Z"/><path class="cls-3" d="M150.16,78.43a12.07,12.07,0,0,1-.3,4.37c-.18.73-.68,1-1.24,1.25-.85.41-1.24.52-1.51,1.18s.06,1,.65,1c.1-1.59,1.2-1.87,2.2-1.86a2.27,2.27,0,0,0-1.58.72c-.65.83-.33,1.27.18,1.39a4.44,4.44,0,0,0,2.49-.33c.82-.42.31-1.39.43-2.66.28-2.89.26-7.23.25-8.53a12.93,12.93,0,0,1-1.57,3.48m-1.89-8.49a12.42,12.42,0,0,1,.67,2.9c.05,1-.72,1.63-.17,2.46A4.53,4.53,0,0,1,150,78.06c1.81-3.07,2-3.88,1.65-4.48S150,72.71,148.26,69.94Zm3.39,3.22c-.21-1.38-.71-3.6-.36-5,0-.07,0-.13,0-.19-.49-2.07-3.61-4.51-4.64-1,.71.65,1.89,1.1,1.61,2.61A9.53,9.53,0,0,0,151.65,73.16Zm2.93,2.53c1.09,2.27,2.41,5.8,1.7,7.39-.54,1.22-1.39.8-2.19,1.37s-1.62,2.11,0,2.34c-.93-1.34,1.22-2.35,2.17-2.67-1.45.87-2.17,1.38-1.89,2.19.15.44.69.5,1.26.46a6.84,6.84,0,0,0,2.76-.72c-.57-.63.09-1.28.26-1.93.81-3-2.45-7.85-2.29-11.35C154.86,71.43,154.81,74.36,154.58,75.69Zm-2.45-7c.26.78-.29,1.72-.06,2.53.4,1.4,1.84,2.93,2.22,4,.6-1.86.36-3.91,2.07-2.79,0-.27,0-.54,0-.72C155.07,70.61,153.58,69.77,152.13,68.65Zm22.4-.52A5.74,5.74,0,0,1,171.46,64c-1.19,2.86.14,5.46-1.07,8.2C171.38,70.56,173.3,69.62,174.53,68.12Zm-3.45,9.35c.11-.36.23-1.16.34-1.51.59-1.93,1.16-3.85,1.84-5.74a7,7,0,0,0-3.05,3.37C170.41,75.05,170.88,76.26,171.08,77.47Zm-6.61,8.4c-.12-1.1.19-1.79,1.54-2.26a1.9,1.9,0,0,0-1.09,2.2c.42-.05.85-.08,1.27-.14,1.67-.24,2.27-.81,3.44-3.54a41.75,41.75,0,0,0,1.23-4,44.29,44.29,0,0,0-1-4.41c-.48,2.14-1.09,8.23-3.41,9.16-1,.4-2.92,1-2.62,2.84C163.86,86,164.25,85.91,164.48,85.88Zm3.1-15.32c-1.13,3.87-2.86,8.4-4.89,11.26-1.14,1.62-2.43,1.42-3.64,2.49-.56.5-.84,1.46.06,1.79a2.32,2.32,0,0,1,2.3-2.14c-2,.62-2.48,2.12-1.73,2.36a4.91,4.91,0,0,0,2.56-.13c.91-.29,1.12-1,1.51-1.71,1.06-2.07,2.28-4.08,3.43-6.1C167.45,76.28,168.39,72.51,167.57,70.55Zm-21-38.76a3.45,3.45,0,0,0-1.54.55,5,5,0,0,1-.88.81,1.07,1.07,0,0,1,.61.07,3,3,0,0,0,2,.64,2.88,2.88,0,0,1-1.74-.78,6.69,6.69,0,0,0,2.19-.05,8.86,8.86,0,0,1-2.1-.21C144.87,32.37,146,32.07,146.52,31.79Zm5.84.67c1.25-.54.23-3.5-.42-2.94-.28,1.13.58,2.25-.69,2.92A2.32,2.32,0,0,0,152.36,32.46Zm-4.48,5.32a4.12,4.12,0,0,0-1.66-.06v0c-.32,4.14-4.51,7.44-6.46,11.13-3.08,5.81-1,16.55,6.45,18l.22-.64c-6.77-2.78-8.26-11-4.65-16.85C144.3,45.34,148.85,42.12,147.88,37.78Zm22.62,1.1c-1.09-2.15-2.57-5.41-3.59-5.28-1.74.21-3.16,5.62-3.89,7-2,3.84-2.35-7.43-5-7.19-1.37.13-2.15,2.6-2.56,3.79A60.85,60.85,0,0,1,151,47.41c-.9,1.57.9,4.18,2.69,3.93,1.34-.19,2.75-2.44,1.5-3.5-1.59-1.34-3,1.79-.64,1.79a1.59,1.59,0,0,1-1.72.33,2.31,2.31,0,0,1-1-2.67,2.38,2.38,0,0,1,2.48-1.66c2.11.14,3.45,2.12,2.07,4.37l-.09.06A9.77,9.77,0,0,1,160.88,49a3.78,3.78,0,0,1-.94-2.49,3.42,3.42,0,0,1,2.67-3.31c1.63-.39,4.31,1.14,2.68,3.44-.33-1.89-2.78-2-2.86-.14-.06,1.36,2,2.5,3.39,1.38a5,5,0,0,0,.84-6.38A10.67,10.67,0,0,0,171.27,44C175.28,44.58,171.18,40.22,170.5,38.89ZM150.06,49c-1,1.17-2.64,1.53-1.7-1.85-2.15,2.1-7.18,5.36-7.94,8-.51,1.77.26,4.06,2.25,4.48a1.77,1.77,0,0,0,2-2.67c-.77-1.1-2.58.07-1.75,1.51-2.82-.9-.68-4.73,2-3.39a2.44,2.44,0,0,1,1.2,2.23c.08,3.07-2.59,4.23-5.21,2.64,1,3.15,2.83,4.6,5.61,5.95,2.51-3.16,5.53,1.8,5.4,2.17,1.37,1.23,3.5,2.45,4.49,3.23a2.18,2.18,0,0,0-.67-2.13c-.8-.92-.81-2.27-1-3.41-.24-1.57-.75-5.08-2-6.19s-3.68-1.58-3.94.38a1.41,1.41,0,0,0,1.88,1.46,2.94,2.94,0,0,0,1.32-1c.2,2.71-2.89,3.35-4.48,1.65a3.15,3.15,0,0,1,.13-4.34c1.38-1.44,4-1.84,5.85.77.27-5,4.13-8.63,9.74-7.11-7.38-1-10.46,5.12-8.74,11.15,3.07.75,5.41.27,8.33-.87-1.71-4.11,3.28-8,1-10.13,1,.31,2,.82,1.52,1.81,1.31-1.75,3.1-3.12,5.46-2.74a3.71,3.71,0,0,1,3.3,3.45c.57,5.58-4,7-4.19,10.88-.76-1.48.57-5.39,1.39-6.42-5.7.95-4.86-6.81-.11-5.13-1.54,0-2.84,2.1-1.23,3.32a2.11,2.11,0,0,0,3.16-2.16A3.18,3.18,0,0,0,171,51.53a3.79,3.79,0,0,0-2.14-.07c-3.93.89-7.08,7.28-5.27,10.9a19,19,0,0,0,3,4.32c1,1.07,1.82,2.34,1.25,3.49h0c.94,2.33.15,5.51-.43,7.84,1-2,2.5-4.84,3-6.25.78-2.16,0-4.28.42-6.43a11.62,11.62,0,0,1,2.81-5.27,5,5,0,0,0,1.52-3c.29-3.6,0-6.21-1.16-7.7,2.44,3,1.4,4.61,1.66,7.62a8.18,8.18,0,0,0,.28-8.32c-.8-1.73-1.62-3.19-2.47-4.65-.51.6-1.32.64-2.15,1a1.42,1.42,0,0,0-.74,1.77.84.84,0,0,0,.9.53c.66-.12.83-1.3-.35-1.09a.92.92,0,0,1,1.55-.31c1.44,1.2-.66,3-2.05,2.36a1.63,1.63,0,0,1-.57-.43c-.09,1.37-.93,1.34-1.8,1.64,1.48-2.1,1-3.79,2.62-5a8.87,8.87,0,0,1-1.81-.66c.52,3.15-2,6.24-4.63,6.45-2,.15-3.95-1.37-8,.79C152.53,53.18,151.49,52.06,150.06,49Zm-9.55,4.82c2.72-3.17,6-5.23,8.69-8.09,1.58-1.7,5.57-10.26,2.86-13-.2-.2-.75-.06-1.61-.1,2.09-1.26.92-1.33,1.31-2.91h0c-.55,1-1.33,2-2.66,1.85-2-.19-3.8-.67-5.27,1.19a3.4,3.4,0,0,1-2.42,1.29c-1,.19-1,.38-1.49,1.27a2.25,2.25,0,0,1,.84-.44c.55-.14.49.46.42.4-.51-.43-.92.07-1.42.3a3.21,3.21,0,0,0-.47,1c-.11.61.11.92.48.79s.56-.22.86-.32c.7-.24,1.33-.08,2-.26a4.68,4.68,0,0,1-1.77.5c-.51.09-.78.13-.82.3s.28.26.51.38c1.51.76,2.57-.13,4-.51a7.37,7.37,0,0,1,2.08-.27,10.93,10.93,0,0,0,2.71,0c1.83-.45,2.16-1.83,1.78-3.32,1.3,2.34-.72,3.7-2.23,3.83C148,44.36,141.89,48,140.51,53.79Z"/></g></g></svg>